<mxfile host="app.diagrams.net" modified="2023-03-28T11:41:54.865Z" agent="Mozilla/5.0 (Windows NT 10.0; Win64; x64; rv:109.0) Gecko/20100101 Firefox/111.0" version="21.1.1" etag="kzDfEt44orxzG9Or5IQo" type="github">
  <diagram name="Сторінка-1" id="-K5dkp0Me32TTzYNK0IF">
    <mxGraphModel>
      <root>
        <mxCell id="0" />
        <mxCell id="1" parent="0" />
      </root>
    </mxGraphModel>
  </diagram>
</mxfile>
